<?xml version="1.0" standalone="no"?>
<!DOCTYPE svg PUBLIC "-//W3C//DTD SVG 20010904//EN"
 "http://www.w3.org/TR/2001/REC-SVG-20010904/DTD/svg10.dtd">
<svg version="1.0" xmlns="http://www.w3.org/2000/svg"
 width="512.000000pt" height="512.000000pt" viewBox="0 0 512.000000 512.000000"
 preserveAspectRatio="xMidYMid meet">

<g transform="translate(0.000000,512.000000) scale(0.100000,-0.100000)"
fill="#000000" stroke="none">
<path d="M2340 2686 l0 -865 -102 -67 c-185 -120 -288 -240 -350 -405 -30 -80
-32 -91 -32 -229 -1 -134 1 -152 28 -234 79 -240 293 -428 543 -476 103 -20
262 -8 360 27 420 152 605 617 399 1007 -58 110 -144 199 -286 296 l-120 81 0
864 0 865 -220 0 -220 0 0 -864z m544 -1331 c44 -44 54 -90 31 -139 -45 -94
-169 -101 -224 -13 -52 85 8 186 111 187 41 0 52 -5 82 -35z"/>
</g>
</svg>
