<?xml version="1.0" standalone="no"?>
<!DOCTYPE svg PUBLIC "-//W3C//DTD SVG 20010904//EN"
 "http://www.w3.org/TR/2001/REC-SVG-20010904/DTD/svg10.dtd">
<svg version="1.0" xmlns="http://www.w3.org/2000/svg"
 width="512.000000pt" height="512.000000pt" viewBox="0 0 512.000000 512.000000"
 preserveAspectRatio="xMidYMid meet">

<g transform="translate(0.000000,512.000000) scale(0.100000,-0.100000)"
fill="#000000" stroke="none">
<path d="M2955 4109 c-108 -16 -238 -58 -355 -117 l-116 -57 -89 24 c-80 22
-111 24 -275 25 -168 0 -194 -3 -281 -26 -339 -92 -593 -295 -749 -601 -33
-65 -60 -124 -60 -131 0 -10 -28 -15 -112 -19 -127 -6 -214 -29 -318 -83 -142
-74 -259 -194 -329 -338 -59 -120 -75 -190 -75 -336 -1 -150 14 -214 80 -350
40 -80 61 -108 138 -185 101 -100 170 -145 286 -186 114 -40 201 -49 499 -49
l267 0 -4 -82 c-8 -166 47 -306 168 -429 81 -82 157 -126 265 -154 89 -23
2511 -23 2600 0 108 28 184 72 265 154 208 211 226 518 44 756 -29 39 -34 52
-26 64 30 42 86 148 104 194 150 395 -70 852 -476 989 l-80 27 -27 81 c-174
513 -636 844 -1169 839 -63 -1 -142 -5 -175 -10z m398 -150 c221 -45 377 -130
543 -294 153 -153 241 -303 290 -495 9 -36 23 -73 31 -82 8 -9 41 -22 72 -29
336 -69 557 -406 486 -742 -14 -69 -68 -191 -104 -237 -16 -20 -21 -22 -35
-11 -9 8 -44 24 -78 36 -70 25 -67 21 -108 130 -92 247 -315 449 -587 532 -80
24 -103 26 -248 27 -146 0 -168 -2 -248 -27 -48 -15 -119 -43 -158 -63 l-71
-35 -76 18 c-109 26 -290 23 -397 -6 -253 -68 -450 -231 -562 -466 l-35 -75
-54 0 c-139 0 -274 -58 -380 -164 -39 -39 -81 -91 -93 -114 l-22 -44 -337 4
-337 4 -80 28 c-200 70 -346 217 -408 411 -34 107 -31 272 6 378 72 207 233
356 438 408 67 17 103 21 187 17 125 -6 137 1 172 102 52 149 127 268 241 382
130 130 286 220 470 270 72 20 107 23 249 23 148 0 175 -3 263 -28 118 -32
133 -33 172 -6 211 144 529 203 798 148z m462 -1323 c150 -41 310 -149 401
-269 57 -75 119 -200 135 -271 16 -71 28 -85 96 -103 228 -59 373 -271 336
-489 -25 -144 -117 -264 -250 -327 l-68 -32 -1270 0 -1270 0 -68 32 c-310 147
-344 559 -61 753 68 47 151 70 254 70 50 0 100 4 110 10 10 5 26 33 35 62 36
109 87 190 175 278 94 94 163 139 267 175 145 51 285 55 432 15 91 -26 92 -26
150 10 64 40 157 77 235 95 80 18 279 13 361 -9z"/>
</g>
</svg>
