<?xml version="1.0" encoding="iso-8859-1"?>
<!-- Generator: Adobe Illustrator 18.1.1, SVG Export Plug-In . SVG Version: 6.00 Build 0)  -->
<svg version="1.1" id="Capa_1" xmlns="http://www.w3.org/2000/svg" xmlns:xlink="http://www.w3.org/1999/xlink" x="0px" y="0px"
	 viewBox="0 0 612 612" style="enable-background:new 0 0 612 612;" xml:space="preserve">
<g>
	<path d="M513.6,300.9c7.4-12.7,12.4-27,14.3-42.4c7.4-60.8-36-116.3-96.7-123.7c-4.5-0.6-9.1-0.8-13.6-0.8
		c-42.5,0-80,24.2-98.6,60.2c-21.5-15.2-47.7-24.1-76-24.1c-71.6,0-129.8,56.8-132.2,127.8C47.9,308.2,0,362.7,0,428.5
		c0,73.1,59.2,132.4,132.3,132.4h345.9c73.1,0,132.4-59.3,132.4-132.4C610.6,367.6,569.5,316.5,513.6,300.9z M417.6,170.2
		c3,0,6.1,0.2,9.2,0.6c41,5,70.2,42.4,65.2,83.3c-1.7,13.7-7,26.2-14.9,36.5c-20.5-46.5-67-79-121.1-79c-1.8,0-3.5,0.1-5.3,0.2
		C363,186.9,388.6,170.2,417.6,170.2z"/>
	<path d="M567.5,121.3l-38.7,36.1l-16-17.2l38.6-36.1L567.5,121.3z M610.7,223.1l-52.8,2.8l1.3,23.5l52.8-2.8L610.7,223.1z
		 M302.1,88.9l28.8,44.4l19.7-12.9l-28.8-44.3L302.1,88.9z M423.1,103.6l23.3,2.8l6.4-52.5l-23.3-2.8L423.1,103.6z"/>
</g>
<g>
</g>
<g>
</g>
<g>
</g>
<g>
</g>
<g>
</g>
<g>
</g>
<g>
</g>
<g>
</g>
<g>
</g>
<g>
</g>
<g>
</g>
<g>
</g>
<g>
</g>
<g>
</g>
<g>
</g>
</svg>
